<svg id="visual" viewBox="0 0 900 600" width="900" height="600" xmlns="http://www.w3.org/2000/svg" xmlns:xlink="http://www.w3.org/1999/xlink" version="1.1"><rect x="0" y="0" width="900" height="600" fill="#FF0066"></rect><g transform="translate(428.4887946734608 296.24045302514526)"><path d="M186.2 -321C246.4 -287.7 303.8 -248.1 346.4 -193.6C389.1 -139 417 -69.5 412.7 -2.5C408.4 64.5 371.8 129 325.7 177.7C279.7 226.4 224.2 259.4 168.4 295.6C112.5 331.9 56.3 371.4 -8.5 386.1C-73.2 400.7 -146.3 390.5 -210.9 359.2C-275.4 328 -331.2 275.7 -354.2 212.4C-377.1 149 -367 74.5 -367.5 -0.2C-367.9 -75 -378.8 -150 -352.9 -208.2C-327 -266.3 -264.2 -307.7 -199.3 -338.2C-134.3 -368.7 -67.2 -388.3 -2.1 -384.7C63 -381.1 126 -354.2 186.2 -321" fill="#dee2e6"></path></g></svg>